/* XPM */
static char *a963a1a1599b48eeb8b2652f62670debuB4F36QuILEbx0bV[] = {
/* columns rows colors chars-per-pixel */
"64 64 138 2 ",
"   c None",
".  c #6E4B5C",
"X  c #754B5F",
"o  c #77535C",
"O  c #7C525F",
"+  c #754C60",
"@  c #784E60",
"#  c #7C5361",
"$  c #81565F",
"%  c #875B5E",
"&  c #895D5E",
"*  c #8E615D",
"=  c #826D5D",
"-  c #90625D",
";  c #97685C",
":  c #9A6B5B",
">  c #9E705E",
",  c #957D5A",
"<  c #A1725B",
"1  c #A57C59",
"2  c #AA7A59",
"3  c #805660",
"4  c #865C61",
"5  c #885E62",
"6  c #8C6363",
"7  c #936762",
"8  c #966961",
"9  c #9A6D60",
"0  c #9D7162",
"q  c #A17563",
"w  c #A67B66",
"e  c #AB7F62",
"r  c #A27768",
"t  c #A37868",
"y  c #A97F6C",
"u  c #66825B",
"i  c #6A805C",
"p  c #6C885D",
"a  c #759B59",
"s  c #79985A",
"d  c #7BA359",
"f  c #9C8559",
"g  c #859758",
"h  c #96915A",
"j  c #AC815B",
"k  c #A38C5C",
"l  c #B1825E",
"z  c #AC935E",
"x  c #B0905F",
"c  c #80A35C",
"v  c #85AB5B",
"b  c #89AD5D",
"n  c #92A55C",
"m  c #9AA75E",
"M  c #8DB15D",
"N  c #94B65F",
"B  c #9E9E60",
"V  c #AD8266",
"C  c #AB8168",
"Z  c #B28562",
"A  c #B68A63",
"S  c #BA8E66",
"D  c #B08769",
"F  c #B68C68",
"G  c #BA8F6B",
"H  c #A19163",
"J  c #AF9660",
"K  c #B19761",
"L  c #BE9267",
"P  c #B09468",
"I  c #BE946A",
"U  c #B39A68",
"Y  c #BA9E6C",
"T  c #B48B73",
"R  c #BB9374",
"E  c #8BA661",
"W  c #8FAE61",
"Q  c #91A765",
"!  c #90AD61",
"~  c #98AD66",
"^  c #97A968",
"/  c #9AA969",
"(  c #91B260",
")  c #97B860",
"_  c #9DBD62",
"`  c #A4AF60",
"'  c #A6B061",
"]  c #AAB666",
"[  c #A0BF63",
"{  c #B4B967",
"}  c #BBBE6A",
"|  c #AAAD71",
" . c #BBA672",
".. c #B0AF74",
"X. c #C2976A",
"o. c #C49A6C",
"O. c #C59E77",
"+. c #C39C7B",
"@. c #CCA476",
"#. c #C6A07C",
"$. c #C9A37E",
"%. c #C3B37E",
"&. c #A4C263",
"*. c #ABC766",
"=. c #ADC867",
"-. c #AAC569",
";. c #BCC36C",
":. c #B5CD6B",
">. c #BFCE6F",
",. c #BAD06E",
"<. c #C0D470",
"1. c #CBA580",
"2. c #CDAA82",
"3. c #D4AF80",
"4. c #CAB581",
"5. c #D6B285",
"6. c #D6B887",
"7. c #D3B28C",
"8. c #DAB789",
"9. c #DCB98B",
"0. c #DABC95",
"q. c #DEC39D",
"w. c #E0C195",
"e. c #E2C599",
"r. c #E4C89D",
"t. c #E3C8A1",
"y. c #E8CFA6",
"u. c #E7CFA8",
"i. c #EBD5AD",
"p. c #ECD8B2",
"a. c #EDD9B2",
"s. c #EDDAB3",
"d. c #EDDAB4",
"f. c #EEDCB8",
"g. c #EFDEB9",
"h. c #F0E0BB",
"j. c #F2E3C0",
"k. c #F3E5C2",
/* pixels */
"                                                        - - - - * * - -                                                         ",
"                                                * * * r 5.5.5.5.5.5.5.+.* * * -                                                 ",
"                                        - - - q +.+.+.$.9.9.9.9.9.9.9.5.+.+.+.R - - - *                                         ",
"                                        t t t T 9.9.9.6.%.%.%.%.%.%.%.4.9.9.9.2.t t t q                                         ",
"                                - - - t 9.9.9.9.9.9.9.%.d d d d d d d Q 9.9.9.9.9.9.9.$.- - - -                                 ",
"                        * * * r 5.5.5.5.9.9.9.%.c c c W ,.&.[ [ [ [ :.-.c c c ^ 9.9.9.8.5.5.5.+.* * * -                         ",
"                - - - q +.+.+.$.9.9.9.4./ / / ~ N b d b <.&.&.&.&.&.:.-.d v M ( / / / | 9.9.9.5.+.+.+.R - - - *                 ",
"                t t t T 9.9.9.6.%.%.%...d b b N &.M d b ,.[ _ _ _ _ :.-.d M _ _ b b d E %.%.%.4.9.9.9.2.t t t q                 ",
"            - t 9.9.9.9.9.9.9.%.d d d d d ,.<.,.&.M d v &.M M M M M _ ) d M _ *.<.<.( d d d d Q 9.9.9.9.9.9.9.$.-               ",
"            - t 9.9.9.%.c c c b [ [ N v d ,.<.,.&.M d b ,.&.&.&.&.&.:.-.d M _ *.<.<.( d M _ [ ) c c c ^ 9.9.9.$.-               ",
"            - 0 @./ / ^ v d ) -.:.&.N b d *.=.*.&.M d b <.&.&.&.&.&.:.-.d M _ &.=.=.b d M &.:.:.-.d v b / /  .R -               ",
"            * 9 F s d v M d -.<.<.&.N b d &.*.*.&.M d b ,.[ _ _ _ _ :.-.d M _ &.*.*.b d M &.:.<.<.d v b v a H V -               ",
"                - i ! _ M d -.<.<.&.N b d ,.<.,.&.M d v &.M M M M M _ ) d M _ *.<.<.( d M &.:.<.<.d v N &.p = -                 ",
"                  u ! _ M d ) &.&.&.N b d ,.<.,.&.M d b ,.&.&.&.&.&.:.-.d M _ *.<.<.( d M &.&.&.&.d v N &.p                     ",
"                  u ! _ M d [ :.:.&.N b d *.=.=.&.N d b <.&.&.&.&.&.:.-.d M _ &.=.=.b d M &.:.:.:.d v N &.p                     ",
"                  u ! _ M d -.<.<.&.N b d &.*.*.&.M d b } ' ' ' ' ' { ] d M _ &.*.*.b d M &.:.<.<.d v N &.p                     ",
"                  u ! _ M d -.<.<.&.N b d ,.<.,.&.M d g 2 2 2 2 2 2 2 f d M _ *.<.<.( d M &.:.<.<.d v N &.p                     ",
"                  u ! _ M d ) &.&.&.N b d ,.<.} 1 1 1 F t.t.t.t.t.t.t.7.1 1 1 z <.<.( d M &.&.&.&.d v N &.p                     ",
"                  u ! _ M d [ :.:.&.N n f J K Y 7.7.7.0.g.g.g.g.g.g.g.i.7.7.7.2.K K k h M &.:.:.:.d v N &.p                     ",
"                  u ! _ M d -.>.} ' m B G G G #.i.i.i.i.d.d.d.d.d.d.d.p.i.i.i.q.G G G P n ` { ;.<.d v N &.p                     ",
"                  u ! _ M d -.} 2 2 2 G y.y.y.i.k.k.k.d.9.9.9.9.9.9.9.e.k.k.k.h.y.y.y.0.2 2 2 x <.d v N &.p                     ",
"                  u ! ' 1 1 1 I t.t.t.u.j.j.j.p.9.9.9.9.9.9.9.9.9.9.9.9.9.9.9.e.j.j.j.g.t.t.t.7.j 1 1 k &.p                     ",
"                2 , k U 7.7.7.0.g.g.g.p.r.r.r.e.9.9.9.2.y y y y C C y T 9.9.9.9.r.r.r.y.g.g.g.i.7.7.7.2.z , 1 2                 ",
"                G G G #.i.i.i.i.d.d.d.i.9.9.9.5.$.$.$.R - - - - - - - 0 $.$.$.2.9.9.9.w.d.d.d.p.i.i.i.q.G G G F                 ",
"            2 G y.y.y.i.k.k.k.d.9.9.9.9.9.9.9.$.- - - - - - - - - - - - - - - t 9.9.9.9.9.9.9.e.k.k.k.h.y.y.y.0.2               ",
"            2 R j.j.j.p.9.9.9.9.9.9.9.1.8 8 8 8 - - - - - - - - - - - - - - - - 8 8 8 y 9.9.9.9.9.9.9.e.j.k.j.t.2               ",
"            ; C r.r.r.e.9.9.9.2.y y y t - - - - - - - - - - - - - - - - - - - - - - - 8 y y y T 9.9.9.9.r.r.r.7.:               ",
"            - t 9.9.9.5.$.$.$.R ; ; ; ; ; ; ; ; ; ; ; ; ; ; ; ; ; ; ; ; ; ; ; ; ; ; ; ; ; ; ; q $.$.$.2.9.9.9.1.-               ",
"            - t 9.9.9.$.- - - ; 2 2 2 2 2 2 2 2 2 2 2 2 2 2 2 2 2 2 2 2 2 2 2 2 2 2 2 2 2 2 2 < - - - t 9.9.9.$.-               ",
"                8 8 8 0 Z I X.X.X.X.X.X.X.X.X.X.X.X.X.X.X.X.X.X.X.X.X.X.X.X.X.X.X.X.X.X.X.X.X.X.X.X.A e 8 8 8 8                 ",
"                    $ 6 I o.o.o.o.o.o.o.o.o.o.o.o.o.o.o.o.o.o.o.o.o.o.o.o.o.o.o.o.o.o.o.o.o.o.o.o.o.X.V o                       ",
"                    + 5 L L L L L L L L L L L L L L L L L L L L L L L L L L L L L L L L L L L L L L L V .                       ",
"                    + $ 2 2 2 2 2 2 2 2 2 2 2 2 2 2 2 2 2 2 2 2 2 2 2 2 2 2 2 2 2 2 2 2 2 2 2 2 2 2 2 : +                       ",
"                    + 5 X.X.X.X.X.X.X.X.X.X.X.X.X.X.X.X.X.X.X.X.X.X.X.X.X.X.X.X.X.X.X.X.X.X.X.X.X.X.X.V +                       ",
"                    + 6 o.o.o.o.o.o.o.o.o.o.o.o.o.o.o.o.o.o.o.o.o.o.o.o.o.o.o.o.o.o.o.o.o.o.o.o.o.o.o.D +                       ",
"                    + 6 o.o.o.I D D D F o.o.o.o.o.o.o.o.o.o.o.o.o.o.o.o.o.o.o.o.o.o.o.I D D D F o.o.o.D +                       ",
"                    + 6 o.o.o.D + + + 6 o.o.o.o.o.o.o.o.o.o.o.o.o.o.o.o.o.o.o.o.o.o.o.D + + + 6 o.o.o.D +                       ",
"                    + $ 2 2 * 3 * * * & # 2 2 2 2 2 2 < # # # # # # # & 2 2 2 2 2 2 * 3 * * * & # 2 2 > +                       ",
"                    + 5 S S 6 O - - - & + A S S S S 9 % % % % % % % % % % A S S S S 6 O - - - & + A S e +                       ",
"                    + 6 o.o.6 O - - - & + I o.o.o.D 6 $ - - - - - - - & O C I o.o.o.6 O - - - & + I o.D +                       ",
"                    + 6 o.o.6 O - - - & + I o.o.o.# % - - - - - - - - - - + C o.o.o.6 O - - - & + I o.D +                       ",
"                    + 6 o.o.6 5 X.X.X.C + I o.o.o.# % - - - - - - - - - - + C o.o.o.6 5 X.X.X.C + I o.D +                       ",
"                    + 4 l l < w 3.3.3.O.; l l l l # % - - - - - - - - - - + 0 l l l < w 3.3.3.O.; l l q +                       ",
"                    + % l l l S 5.5.5.@.l l l l l # % - - - - - - - - - - + > l l l l S 5.5.5.@.l l l < +                       ",
"                    + 6 o.o.o.o.o.o.o.o.o.o.o.o.o.# % - - - - - - - - - - + C o.o.o.o.o.o.o.o.o.o.o.o.D +                       ",
"                    + 6 o.o.o.o.o.o.o.o.o.o.o.o.o.# % - - - - - - - - - - + C o.o.o.o.o.o.o.o.o.o.o.o.D +                       ",
"                    + 6 o.o.o.o.o.o.o.o.o.o.o.o.o.# % ; < < < < < < < : - + C o.o.o.o.o.o.o.o.o.o.o.o.D +                       ",
"                    X 5 D D D D D D D D D D D D D # & : l l l l l l l 2 ; @ 0 D D D D D D D D D D D D w +                       ",
"                        + + + + + + + + + + + + + + ; l o.o.o.o.o.o.o.L 2 O + + + + + + + + + + + + + +                         ",
"                            + 4 Z Z 5 +             * 0 o.S A A A A X.F -               + e Z q +                               ",
"                            + 5 I I 6 +             * 0 o.X.I I I I o.F -               + F I V +                               ",
"                            + 6 o.o.6 +             * 0 o.X.X.X.X.X.o.F -               + I o.D +                               ",
"                            + 6 o.o.6 +             * 0 o.A A A A A I F -               + I o.D +                               ",
"                            + 6 o.o.6 +             * 0 o.o.o.o.o.o.o.F -               + I o.D +                               ",
"                            + 6 o.o.6 +             * 0 o.L S S S S X.F -               + I o.D +                               ",
"                            + 6 o.o.6 +             * 0 o.S S S S S X.F -               + I o.D +                               ",
"                            + 6 o.o.6 +             * 0 o.o.o.o.o.o.o.F -               + I o.D +                               ",
"                                # #                 * 0 o.S A A A A X.F -                 # # #                                 ",
"                                                    * 0 o.X.I I I I o.F -                                                       ",
"                                                    * 0 o.X.X.X.X.X.o.F -                                                       ",
"                                                    * 0 o.A A A A A I F -                                                       ",
"                                                    * 0 o.o.o.o.o.o.o.F -                                                       ",
"                                                      7 q q q q q q q 0                                                         ",
"                                                        - - - - - - - *                                                         "
};