/* XPM */
static char *a0227ae25aae474ef09058d08e3cb33eKO6ix402KJOCxRNe[] = {
/* columns rows colors chars-per-pixel */
"64 64 125 2 ",
"   c None",
".  c #5E7640",
"X  c #688347",
"o  c #66894B",
"O  c #749B55",
"+  c #759D56",
"@  c #769E57",
"#  c #769F57",
"$  c #779F57",
"%  c #77A057",
"&  c #77A157",
"*  c #78A057",
"=  c #78A157",
"-  c #77A058",
";  c #77A158",
":  c #78A058",
">  c #78A158",
",  c #79A158",
"<  c #79A258",
"1  c #7AA258",
"2  c #7AA359",
"3  c #7DA459",
"4  c #7DA559",
"5  c #7FA65A",
"6  c #7FA75A",
"7  c #82A55A",
"8  c #80A75A",
"9  c #81A85A",
"0  c #82A85A",
"q  c #82A95B",
"w  c #84A85B",
"e  c #84AA5B",
"r  c #86AC5C",
"t  c #87AC5C",
"y  c #88AD5C",
"u  c #89AD5D",
"i  c #8AAE5C",
"p  c #8AAF5D",
"a  c #8BAF5D",
"s  c #8BAE5E",
"d  c #8DB15D",
"f  c #8EB15D",
"g  c #8EB25E",
"h  c #90B35E",
"j  c #91B45E",
"k  c #92B45E",
"l  c #92B55F",
"z  c #93B55F",
"x  c #95B65F",
"c  c #95B75F",
"v  c #96B75F",
"b  c #96B860",
"n  c #97B860",
"m  c #97B960",
"M  c #97B861",
"N  c #98B960",
"B  c #99BA60",
"V  c #9ABA60",
"C  c #9ABB61",
"Z  c #9BBB61",
"A  c #9BBB62",
"S  c #9CBC61",
"D  c #9DBD61",
"F  c #9EBD61",
"G  c #9FBE62",
"H  c #A0BF62",
"J  c #A1BF62",
"K  c #A1C062",
"L  c #A2C062",
"P  c #A2C163",
"I  c #A3C163",
"U  c #A3C263",
"Y  c #A4C263",
"T  c #A5C263",
"R  c #A5C363",
"E  c #A5C364",
"W  c #A6C364",
"Q  c #A7C464",
"!  c #A7C465",
"~  c #A8C465",
"^  c #A8C565",
"/  c #A9C565",
"(  c #AAC666",
")  c #ABC666",
"_  c #ABC766",
"`  c #ACC767",
"'  c #ADC867",
"]  c #AEC867",
"[  c #AEC868",
"{  c #AEC968",
"}  c #AFC968",
"|  c #B0C968",
" . c #B0CA68",
".. c #B0CA69",
"X. c #B1CA69",
"o. c #B1CB69",
"O. c #B2CB69",
"+. c #B2CB6A",
"@. c #B3CB6A",
"#. c #B3CC6A",
"$. c #B4CC6A",
"%. c #B4CC6B",
"&. c #B5CD6B",
"*. c #B6CD6B",
"=. c #B6CE6B",
"-. c #B6CE6C",
";. c #B7CE6C",
":. c #B7CF6C",
">. c #B8CF6C",
",. c #B8CF6D",
"<. c #B9CF6D",
"1. c #B9D06D",
"2. c #BAD06D",
"3. c #BBD06D",
"4. c #BBD16E",
"5. c #BCD16E",
"6. c #BCD26E",
"7. c #BDD26E",
"8. c #BDD26F",
"9. c #BED26F",
"0. c #BED36F",
"q. c #BFD36F",
"w. c #BFD370",
"e. c #BFD470",
"r. c #C0D470",
/* pixels */
"            - > > > > > > > > > > > > > > > > > > > > > > > > > > > > > > > > > > > > > > > > > > > > > > > > > >               ",
"      * > > > > > c Y Y Y Y Y Y Y > > > K Y Y Y e > > > y Y Y Y Y Y Y > > > > C Y Y Y g > > 8 Y Y Y Y Y Y Y 3 > > > > > >       ",
"    & > H K K K K Y Y Y Y Y Y Y Y K K K Y Y Y Y K K K K Y Y Y Y Y Y Y K K K K Y Y Y Y Y K K K Y Y Y Y Y Y Y K K K K y > & $     ",
"  * > K Y Y Y Y Y Y Y Y Y Y Y Y Y Y Y Y Y Y Y Y Y Y $.w.w.;.) w.w.Y 8.w.w.Q Y Y Y Y Y Y Y Y Y Y Y 8.w.Y 8.w.) Y Y Y K K l > &   ",
"  > H Y Y Y Y Y ;.' #.8.8.8.8.8.8.8.8.Y 8.8.8.) ;.8.e.#.X.e.8.r.r.8.r.Q 8.8.8.) ;.8.8.X.} 8.8.8.8.r.r.8.r.r.8.8.) Y Y Y l > >   ",
"  > 3 K Y Y 1.8.e.8.8.r.r.r.r.r.r.r.r.8.r.r.r.8.e.r.r.8.8.r.r.r.r.r.r.8.r.r.r.8.e.r.r.8.8.r.r.r.r.r.r.r.r.r.r.r.8.8.} Y l > >   ",
"o > > K Y 1.e.r.r.r.r.$.X.r.r.r.r.r.r.r.r.r.r.r.r.r.r.r.r.r.r.r.r.r.r.r.r.r.r.r.r.r.r.r.r.r.r.r.r.r.r.r.r.r.r.r.} <.X.Y K l $ o ",
"> > C Y <.e.r.r.r.r.r.8.8.r.r.r.r.r.r.r.r.r.r.r.r.r.r.r.r.r.r.r.r.r.r.r.r.r.r.r.r.r.r.r.r.r.r.r.r.r.r.r.r.r.r.r.8.8.8.} Y M > > ",
"> > K Y ) 8.r.r.r.r.r.r.<.) } r.r.r.r.r.r.r.r.r.X.1.r.r.r.1.) ) ) ) r.r.r.r.} 8.r.r.r.r.r.r.r.r.r.r.` e.r.r.r.r.r.r.r.X.Y H l > ",
"> c Y Y $.w.r.r.r.r.$.' ) Y ) r.r.r.r.r.r.r.r.r.1.8.r.;.' ) Y Y Y Y ' ' 8.r.<.8.r.r.r.r.r.r.r.r.r.' Y ' ' 8.r.r.r.r.r.X.Y Y S > ",
"> Y Y Y 8.r.r.r.r.$.) Y Y Y ) r.r.r.r.r.r.r.r.r.r.r.;.) Y Y Y Y Y Y Y Y } 8.r.r.r.r.r.r.r.r.r.r.r.Y Y Y Y 8.r.r.r.r.r.1.} S t > ",
"> Y Y Y 8.$.8.r.r.' Y Y C g M r.r.r.r.r.r.$.8.r.r.r.X.Y Y S g g g g Y Y Y 8.r.r.r.;.1.r.r.r.r.r.r.g g K Y X.8.r.r.r.r.1.` M > > ",
"> Y Y } 8.X.8.r.<.) Y C y > y r.r.r.r.r.r.X.8.r.r.<.) Y S y - - - > l K Y #.8.r.r.$.1.r.r.r.r.r.r.> & l K Y X.8.r.r.r.<.) S t > ",
"> Y Y w.r.r.r.r.) Y Y g >     r.r.r.r.r.r.r.r.r.1.) Y Y l & -     - - K Y Y $.8.r.r.r.r.r.r.r.r.r.  $ > K Y ) 8.r.r.r.r.$.Y S > ",
"> S Y 1.r.r.r.r.} ) ) M .     r.r.r.r.r.r.r.r.r.} ) ) ) C X         e ) ) ) ) 1.r.r.r.r.r.r.r.r.r.    8 Q ) 8.r.r.r.r.8.X.K c > ",
"> > K Y 8.r.r.r.r.r.r.r.r.r.r.r.r.r.r.r.r.r.r.r.r.r.r.r.r.r.r.r.r.r.r.r.r.r.r.r.r.r.r.r.r.r.r.r.r.r.r.r.r.r.r.r.r.r.r.X.Y M > > ",
"> > K Y 8.r.r.r.r.r.r.r.r.r.r.r.r.r.r.r.r.r.r.r.r.r.r.r.r.r.r.r.r.r.r.r.r.r.r.r.r.r.r.r.r.r.r.r.r.r.r.r.r.r.r.r.r.r.r.X.Y M > > ",
"> Y Y Y 8.r.) 1.r.r.r.r.r.r.r.r.r.r.r.r.r.r.r.r.r.r.r.r.r.r.r.r.r.r.r.r.r.r.r.r.r.r.r.r.r.r.r.r.r.r.r.r.r.r.r.r.` ;.r.X.Y Y S > ",
"> Y Y Y 8.r.r.r.r.r.r.r.r.r.r.r.r.r.r.r.r.r.r.r.r.r.r.r.$.' r.r.r.r.r.r.r.r.r.r.r.r.r.r.r.r.r.r.r.r.r.r.r.r.r.r.r.r.r.X.Y Y S > ",
"> Y Y 8.r.r.r.r.r.r.r.r.r.r.r.r.r.r.r.r.r.r.r.r.r.r.r.r.r.e.r.r.r.r.r.W 8.r.r.r.r.r.r.r.r.r.r.r.r.r.r.r.r.r.r.r.r.r.r.e.$.Y S > ",
"> Y Y w.r.r.r.r.r.r.r.r.r.r.r.r.r.r.r.r.r.r.r.r.r.r.r.r.r.r.r.r.r.r.r.8.r.r.r.r.r.r.r.r.r.r.r.r.r.r.r.r.r.r.r.r.r.r.r.r.$.Y S > ",
"> Y Y Q 8.r.r.r.r.r.r.r.r.r.r.r.r.r.r.r.r.r.) 1.r.r.r.r.r.r.r.r.r.r.r.r.r.r.r.r.r.r.r.r.r.r.r.r.r.r.r.r.r.r.r.r.r.r.r.$.W Y S > ",
"> 3 K 1.r.r.r.r.r.r.r.$.X.r.r.r.r.r.r.r.r.r.8.w.r.r.r.r.r.r.r.r.r.r.r.) 8.r.r.r.r.r.r.r.r.r.r.r.r.r.r.) 8.r.r.r.r.r.r.8.X.C 3 > ",
"> > K ) 8.r.r.r.r.r.r.8.8.r.r.r.r.r.r.r.r.r.r.r.r.r.r.r.;.X.r.r.r.r.r.1.r.r.r.} 1.r.r.r.r.r.r.r.r.r.r.1.r.r.r.r.r.r.r.$.Q M > > ",
"> > K Y 8.r.r.r.r.X.;.r.r.r.r.r.r.r.r.r.r.r.r.r.r.r.r.r.8.1.r.r.r.r.r.r.r.r.r.1.8.r.r.r.r.r.r.r.r.r.r.r.r.' 8.r.r.r.r.X.Y M > > ",
"> > K Y ' 8.r.r.r.1.8.r.r.1.X.r.r.r.r.} 8.r.r.r.r.r.r.r.r.1.' } r.' r.r.r.r.r.r.r.r.r.r.r.r.r.r.r.' r.r.r.<.8.r.r.r.$.) Y M > > ",
"> l Y Y #.8.r.r.r.r.r.<.X.` ) r.r.r.r.$.e.r.r.r.r.r.r.<.X.` Y Y X.Y } X.8.r.r.r.r.r.r.r.r.r.r.r.r.Y } X.8.r.r.r.r.r.1.` Y S g > ",
"> Y Y Y 8.r.r.r.r.r.<.) Y Y ) r.r.r.r.r.r.r.r.r.r.r.<.) Y Y Y Y Y Y Y Y 8.r.r.r.r.r.<.1.r.r.r.r.r.Y Y Y X.8.r.r.r.r.r.X.Y Y S > ",
"> l Y Y 8.r.r.r.r.<.) Y S l C r.r.r.r.r.r.r.;.8.r.r.X.Y Y S l l l l Y Y $.8.r.r.r.r.$.<.r.r.r.r.r.l l K Y #.8.r.r.r.r.X.Y S g > ",
"> > K ` 8.r.r.r.1.) Y S y & y r.r.r.r.r.r.r.} 8.r.1.` Y S g & * * > M Y Y $.8.r.r.r.r.r.r.r.r.r.r.* - c K Y $.8.r.r.r.$.) M > > ",
"> 8 K w.r.r.r.r.} W Y g - -   r.r.r.r.r.r.r.r.r.r.' Y Y l & >     > > K Y ) 8.r.r.r.r.r.r.r.r.r.r.  - & K Y ) 1.r.r.r.r.$.C 3 > ",
"> Y Y w.r.r.r.r.r.' Y g -     r.r.r.r.r.r.r.r.r.r.} Y Y l *         - K Y 8.r.r.r.r.r.r.r.r.r.r.r.    > K Y 8.r.r.r.r.r.$.Y S > ",
"> Y Y w.r.r.r.r.r.' Y g -     r.r.r.r.r.r.r.r.r.r.r.X.Y l *         - K Y 8.r.r.r.r.r.r.r.r.r.r.r.    > K Y 8.r.r.r.r.r.$.Y S > ",
"> Y Y w.r.r.r.r.r.' Y g > -   r.r.r.r.r.r.r.r.r.r.r.X.Y l > >     & > K Y 8.r.r.r.r.r.r.r.r.r.r.r.  * > K Y 8.r.r.r.r.r.$.Y S > ",
"> Y Y w.r.Q 8.r.r.' Y Y l - e r.r.r.r.r.r.r.r.) <.r.X.Y Y M > $ $ > K Y Y 8.r.) <.r.r.r.r.r.r.r.r.$ > K Y Y 8.r.r.} $.r.$.Y S > ",
"> > K w.r.w.r.r.r.e.} Y K K ) r.r.r.r.W 8.r.r.w.r.r.e.X.Y Y K K K K Y Y Y 8.r.w.r.r.r.r.r.r.r.r.r.K K Y Y 8.r.r.r.e.r.r.$.M > > ",
"> > K w.r.r.r.r.r.r.8.X.Y Y ) r.r.r.r.8.r.r.r.r.r.r.r.X.Y Y Y Y Y Y Y 8.8.r.r.r.r.r.r.#.X.r.r.r.r.Y Y Y 8.r.r.r.r.r.r.r.$.M > > ",
"> > K Q 8.r.r.r.' <.r.8.#.) 8.r.r.r.r.r.r.r.r.r.r.r.r.8.#.) 8.8.Y Y 8.r.r.r.r.r.r.r.r.8.8.r.r.r.r.8.Y 8.r.r.) 1.r.r.r.$.W M > > ",
"> S Y Y 8.r.r.r.8.8.r.r.8.8.r.r.r.r.r.r.r.r.r.r.r.r.r.r.8.8.r.r.8.8.r.r.r.r.` 1.r.r.r.r.r.r.r.r.r.r.8.r.r.r.8.w.r.r.r.X.Y K M > ",
"> 9 K Y ) 8.r.r.r.r.r.r.r.r.r.r.r.r.r.r.r.r.r.r.r.r.r.r.r.r.r.r.r.r.r.r.r.r.1.8.r.r.r.r.r.r.r.r.r.r.r.r.r.r.r.r.r.r.#.Q Y C 3 > ",
"> > K Y ;.e.r.r.r.r.r.$.$.r.r.r.r.r.r.r.r.r.r.r.r.r.r.r.<.X.r.r.r.r.r.r.r.r.r.r.r.r.r.r.r.r.r.r.r.r.r.` 8.r.r.r.r.r.8.} Y M > > ",
"> > K $.e.r.r.r.r.r.r.1.1.r.r.r.r.r.r.r.r.r.X.8.r.r.r.r.8.1.r.r.r.r.r.r.r.r.r.r.r.r.r.r.r.r.r.r.r.r.r.;.e.r.r.r.r.r.r.1.} M > > ",
"> l Y } 8.r.r.r.r.r.r.r.r.r.r.r.r.r.r.r.r.r.$.8.r.r.r.r.r.r.r.r.r.r.r.r.r.r.r.#.8.r.r.r.r.r.r.r.r.r.r.r.r.r.r.r.r.r.r.<.) S g > ",
"> Y Y X.w.r.r.r.r.r.r.r.r.r.r.r.r.r.r.r.r.r.r.r.r.r.r.r.r.r.r.r.r.r.X.e.r.r.r.$.8.r.r.r.r.r.r.r.r.r.r.r.r.r.r.r.r.r.r.1.` Y S > ",
"> Y Y $.e.r.r.r.r.r.r.r.r.r.r.r.r.r.r.r.r.r.r.r.r.r.r.1.1.r.r.r.r.r.} e.r.r.r.r.r.r.r.r.r.r.r.r.r.r.r.r.r.r.r.r.r.r.r.1.} Y S > ",
"> Y Y Y ;.w.r.r.r.r.r.r.r.r.r.r.r.r.r.r.r.r.r.r.r.r.r.$.$.r.r.r.r.r.r.r.r.r.r.r.r.r.r.r.r.r.r.r.r.r.r.r.r.r.r.r.r.r.1.} Y Y S > ",
"> S Y Y ) 8.8.w.r.r.r.r.r.r.r.r.r.r.r.r.r.r.r.r.r.r.r.r.r.r.r.r.r.r.r.r.r.r.r.r.r.r.r.r.r.r.r.r.r.r.r.r.r.r.r.r.8.8.X.Q Y K c > ",
"> > K Y 8.r.) 1.r.r.r.r.r.r.r.r.r.r.r.r.r.r.r.r.r.r.r.r.r.r.r.r.r.r.r.r.r.r.r.r.r.r.r.r.r.r.r.r.r.r.r.r.r.r.r.r.' ;.r.X.Y M > > ",
"> > K Y 8.r.r.r.r.r.r.r.r.r.r.r.r.r.r.r.r.r.r.r.r.r.r.r.r.r.r.r.r.r.r.r.r.r.r.r.r.r.r.r.r.r.r.r.r.r.r.r.r.r.r.r.r.r.r.X.Y M > > ",
"> Y Y 8.r.r.r.r.r.' Y g >     r.r.r.r.r.r.r.r.r.r.' Y Y l *         - K Y Y 8.r.r.r.r.r.r.r.r.r.r.    > K Y 8.r.r.r.r.X.Y M > > ",
"> Y Y Y 8.r.r.r.r.' Y g & $   r.r.r.r.r.r.r.r.r.r.r.} Y l - -     * > K Y 8.r.r.r.r.r.r.r.r.r.r.r.  & > K Y 8.r.r.r.r.X.Y M > > ",
"> > K 8.r.r.) 1.r.' Y K l $ 8 r.r.r.r.r.r.r.r.r.r.r.X.Y K c & O O > K Y Y 8.r.r.r.r.r.r.r.r.r.r.r.O > K Y Y 8.r.` ;.X.Y Y Y C > ",
"> > K W 8.r.8.r.r.8.} Y K K Q r.r.r.r.r.r.r.r.r.r.r.8.X.Y K K K K K Y Y 8.r.r.r.r.r.r.r.r.r.r.r.r.K K Y Y Y 8.r.8.e.8.X.Y Y S > ",
"> S Y Y 8.r.r.r.r.r.X.Y Y Y ) r.r.r.r.r.r.r.r.r.r.} $.8.#.Y Y Y Y Y Y 8.r.) 8.r.r.r.r.r.r.r.r.r.r.Y Y Y 1.8.r.r.r.r.X.W Y Y S > ",
"> Y Y Y 8.r.r.r.r.r.8.X.' 8.8.r.r.r.r.r.r.r.r.r.r.8.8.r.8.$.Y Y Y Y 1.r.r.8.e.r.r.r.r.r.r.r.r.r.r.Y Y 1.r.r.r.r.r.r.8.X.Y C 3 > ",
"> 9 K Y 8.r.r.r.r.r.r.8.8.r.r.r.r.r.r.r.r.r.r.r.r.r.r.r.r.8.1.1.1.1.r.r.r.r.r.r.r.r.r.r.r.r.r.r.r.1.1.r.r.r.r.r.r.r.r.X.Y M > > ",
"> > K Y ) ) 8.r.r.r.r.r.r.r.r.r.r.r.r.r.' 8.r.r.r.r.r.r.r.r.r.r.r.r.r.r.r.r.r.r.r.r.$.$.r.r.r.r.r.r.r.r.' 8.r.X.1.r.$.) Y M > > ",
"  > K Y Y $.8.r.r.$.<.r.r.r.r.r.r.r.r.r.;.w.r.r.r.r.r.r.<.#.r.r.r.r.} e.r.r.r.r.r.r.1.1.r.r.r.r.r.r.r.r.;.w.r.<.8.r.X.Y C 9 &   ",
"  > y K Y } 8.r.$.X.1.r.r.r.r.r.r.r.r.r.r.r.r.r.r.$.1.r.1.<.r.r.r.r.$.r.r.X.8.r.r.r.r.r.r.r.r.r.r.r.r.r.r.r.r.r.r.$.) Y l > >   ",
"  > > K Y Y X.X.) ' X.1.1.$.r.w.X.X.X.e.r.$.8.$.X.) ` X.X.$.r.r.r.r.X.X.X.W X.X.8.;.1.r.1.X.X.#.r.r.r.X.w.r.$.X.X.) Y Y l > >   ",
"  > & l K Y Y Y Y Y Y ` } ) $.$.Y Y Y $.$.W X.Q Y Y Y Y Y ) $.$.$.$.Y Y Y Y Y Y X.) } $.} Y Y Y $.$.$.Y $.$.Q Y Y Y Y C y >     ",
"    $ > c M M M M H S M S Y Y Y Y M M Y Y Y Y Y C M M S Y Y Y Y Y Y Y Y C M M K Y Y Y Y S M C Y Y Y Y M M K Y C M M M y >       ",
"      & > > > > > h t > t S S S S > > C S S S S 9 > > y S S S S S S S S > > > c S S S S g > 3 S S S S > > C S 3 > & > >         ",
"            - > > > > > > > > > > > > > > > > > > > > > > > > > > > > > > > > > > > > > > > > > > > > > > > > > >               "
};