/* XPM */
static char *_425c402fb6a4b2f988f7dcf3df91f57Tisc8bAFATLFSH17[] = {
/* columns rows colors chars-per-pixel */
"64 64 241 2 ",
"   c #000000",
".  c #070D05",
"X  c #1C0E05",
"o  c #0D1107",
"O  c #041309",
"+  c #02140B",
"@  c #0C1108",
"#  c #181B0D",
"$  c #0B1D14",
"%  c #131D12",
"&  c #191E12",
"*  c #280902",
"=  c #2F0A02",
"-  c #300A03",
";  c #3A0B04",
":  c #251109",
">  c #2B130B",
",  c #37140D",
"<  c #0D2018",
"1  c #142115",
"2  c #1C2214",
"3  c #15241A",
"4  c #1A241D",
"5  c #1B291D",
"6  c #262719",
"7  c #372A18",
"8  c #162C24",
"9  c #1D2C22",
"0  c #1B312A",
"q  c #222C21",
"w  c #292D22",
"e  c #2A3428",
"r  c #30382F",
"t  c #343B2D",
"y  c #4A0501",
"u  c #450903",
"i  c #4D0A04",
"p  c #530A05",
"a  c #530B05",
"s  c #590B05",
"d  c #4A1305",
"f  c #561407",
"g  c #5C1C10",
"h  c #581A14",
"j  c #670903",
"k  c #6B0C05",
"l  c #730B06",
"z  c #790C06",
"x  c #780D07",
"c  c #601B05",
"v  c #631807",
"b  c #7A1712",
"n  c #4D2719",
"m  c #45331B",
"M  c #53371B",
"N  c #642615",
"B  c #6F2D16",
"V  c #48332B",
"C  c #5B3622",
"Z  c #583A24",
"A  c #6C3629",
"S  c #743724",
"D  c #763924",
"F  c #2C423C",
"G  c #364238",
"H  c #5A452D",
"J  c #474838",
"K  c #674526",
"L  c #654A36",
"P  c #744F35",
"I  c #3B4D47",
"U  c #3E514A",
"Y  c #444744",
"T  c #40524B",
"R  c #4A554D",
"E  c #555445",
"W  c #485953",
"Q  c #525B55",
"!  c #665B47",
"~  c #74554B",
"^  c #4D615A",
"/  c #55635C",
"(  c #6D624D",
")  c #6F6653",
"_  c #786B56",
"`  c #7B6C55",
"'  c #5A6964",
"]  c #5F706A",
"[  c #616D68",
"{  c #68736C",
"}  c #757066",
"|  c #667572",
" . c #6A7773",
".. c #767B75",
"X. c #880D07",
"o. c #940B05",
"O. c #9A0E06",
"+. c #940F09",
"@. c #8C1607",
"#. c #9B1305",
"$. c #95110A",
"%. c #99110A",
"&. c #8E1912",
"*. c #961711",
"=. c #981B15",
"-. c #A91706",
";. c #AD1A06",
":. c #B71D05",
">. c #942316",
",. c #B52607",
"<. c #BD2305",
"1. c #B22A0E",
"2. c #BB2A0B",
"3. c #9C2B25",
"4. c #93322D",
"5. c #9E3631",
"6. c #A82E24",
"7. c #A53A34",
"8. c #C51E00",
"9. c #C62503",
"0. c #C92503",
"q. c #C82806",
"w. c #C52B0B",
"e. c #CB2C0A",
"r. c #D12F0C",
"t. c #C9381A",
"y. c #D63818",
"u. c #E33E1D",
"i. c #C63E22",
"p. c #89502F",
"a. c #8A5634",
"s. c #955A35",
"d. c #AB4637",
"f. c #996037",
"g. c #A9663B",
"h. c #B56B3D",
"j. c #C84226",
"k. c #CD492D",
"l. c #D45439",
"z. c #E64525",
"x. c #EB5334",
"c. c #F55A3B",
"v. c #8C5A4F",
"b. c #AA4F48",
"n. c #A85955",
"m. c #806E57",
"M. c #8F6C52",
"N. c #B96D42",
"B. c #BD7244",
"V. c #B06B59",
"C. c #A77659",
"Z. c #8C7961",
"A. c #947168",
"S. c #B1776D",
"D. c #C25A47",
"F. c #D55C42",
"G. c #F75F41",
"H. c #C47443",
"J. c #CD7947",
"K. c #CA7949",
"L. c #D17A46",
"P. c #D47C49",
"I. c #CA6B50",
"U. c #ED674C",
"Y. c #F56346",
"T. c #FD6445",
"R. c #FD6649",
"E. c #FF6A4C",
"W. c #FD7559",
"Q. c #CD776C",
"!. c #E37B65",
"~. c #FD7C62",
"^. c #77817B",
"/. c #958472",
"(. c #AF8B70",
"). c #A88D73",
"_. c #BA8478",
"`. c #B8987B",
"'. c #C98255",
"]. c #D38657",
"[. c #D68F6D",
"{. c #C89979",
"}. c #D79C75",
"|. c #F68C76",
" X c #D6A17C",
".X c #798683",
"XX c #7B8C89",
"oX c #7F918E",
"OX c #828D89",
"+X c #83928E",
"@X c #8A9794",
"#X c #959A96",
"$X c #B49389",
"%X c #B89893",
"&X c #B7A69F",
"*X c #9BA4A2",
"=X c #A9AEAA",
"-X c #BBA9A6",
";X c #A8B2AF",
":X c #ADB8B5",
">X c #B4BBB8",
",X c #CA8E87",
"<X c #C69E81",
"1X c #E89888",
"2X c #F49C8B",
"3X c #C8A386",
"4X c #D9A683",
"5X c #D4AB8C",
"6X c #DAAE8D",
"7X c #D5AC94",
"8X c #DDB292",
"9X c #F1A892",
"0X c #E2B695",
"qX c #E5B998",
"wX c #E6B999",
"eX c #D0AFA8",
"rX c #F2B8AC",
"tX c #BBC1BF",
"yX c #E7C4AD",
"uX c #ECC6AD",
"iX c #F8C5BA",
"pX c #BBC3C1",
"aX c #C4CAC7",
"sX c #C5CBC9",
"dX c #C6CBC9",
"fX c #CAD0CD",
"gX c #D3D7D6",
"hX c #DBDEDD",
"jX c #EDD0CB",
"kX c #F9D4C9",
"lX c #DDE0DF",
"zX c #F8E2D9",
"xX c #DFE2E1",
"cX c #E4E7E6",
"vX c #E5E9E8",
"bX c #EBECEC",
"nX c #FAEBE7",
"mX c #F6F0EF",
"MX c #F4F5F5",
"NX c #F9F6F6",
"BX c #FFFFFF",
/* pixels */
"BXBXBXBXBXBXBXBXBXBXBXBXBXBXBXBXBXMXtX+XXX.X~ N v v c c c v v v v v v v v v N ~ .XXX+XpXNXBXBXBXBXBXBXBXBXBXBXBXBXBXBXBXBXBXBXBX",
"BXBXBXBXBXBXBXBXBXBXBXBXMXMXMXMXMXgX..q $ 6 N ,.9.<.<.2.2.2.2.<.2.2.2.2.,.<.,.N 6 % q ^.xXMXMXMXMXMXBXBXBXBXBXBXBXBXBXBXBXBXBXBX",
"BXBXBXBXBXBXBXBXBXBXBXbX;XXXOXOXOX..L f i f @.9.r.u.z.z.z.z.z.z.x.!.!.k.0.0.9.@.s u a L .X@X+X+X+X;XvXBXBXBXBXBXBXBXBXBXBXBXBXBX",
"BXBXBXBXBXBXBXBXBXBXBXaXQ 3 8 0 0 e B ,.<.,.9.e.z.Y.E.T.T.T.T.c.~.iXrXI.q.9.9.w.2.2.1.B 6 8 8 3 5 Q tXNXBXBXBXBXBXBXBXBXBXBXBXBX",
"BXBXBXBXBXBXBXBXBXbX:X..C n E [ [ } b.z.z.z.u.z.U.2X2XW.E.E.T.x.U.|.}.l.9.9.e.l.!.|.!.d.g d d u ; V } ;XvXBXBXBXBXBXBXBXBXBXBXBX",
"BXBXBXBXBXBXBXBXNXpX^ 7 @.k.7XhXhXjX1XR.c.G.c.Y.2XkXrX~.T.R.c.y.e.t.t.e.9.9.t.[.kXnXkX[.1.;.,.-.@.v 6 W pXNXBXBXBXBXBXBXBXBXBXBX",
"BXBXBXBXBXBXBXcX:X..m v 2.c.2XiXkXrX|.E.T.R.T.E.|.rX2XU.x.x.z.e.9.8.9.0.9.8.t.1XNXBXNX9Xy.0.q.:.-.&.V R .X:XbXBXBXBXBXBXBXBXBXBX",
"BXBXBXBXBXBXNX>XW m @.2.x.R.W.|.|.~.W.E.R.R.T.E.W.~.U.y.e.r.e.q.9.9.9.9.9.8.t.1XnXBXmX1Xt.0.9.:.%.5.A.Z.I W tXBXBXBXBXBXBXBXBXBX",
"BXBXBXBXBXvXpX/.V N 1.z.c.E.T.T.T.T.R.E.~.|.|.|.W.x.y.e.9.9.9.9.9.9.9.9.9.9.t.!.rXiXrX!.t.9.9.:.-.7.,X$XQ I OXsXbXBXBXBXBXBXBXBX",
"BXBXBXBXNX:XQ H d.l.x.c.T.E.E.E.E.E.R.W.2XkXzXkX|.z.q.q.9.9.9.9.9.9.9.9.9.9.e.t.l.l.l.j.e.9.9.9.<.d._.-X#X..R / aXBXBXBXBXBXBXBX",
"BXBXBXvXaX} 7 S !.|.W.E.E.R.c.c.c.c.x.Y.9XNXBXNX1Xt.8.9.9.q.9.9.9.9.9.q.9.9.9.9.8.8.8.9.9.9.9.0.0.i.V.$X,XA.7 q W :XbXBXBXBXBXBX",
"BXBXMX=XQ C &.N.rXiX|.E.E.G.z.y.y.y.r.z.1XNXBXNX1Xt.8.9.9.q.q.9.9.9.9.9.9.9.9.9.9.9.9.9.9.9.9.q.0.2.6.5.7.4.h , . U :XMXBXBXBXBX",
"BXBXMXXX1 u ,.U.rXrXW.c.c.x.y.9.9.9.8.e.!.rXkXiX[.t.8.9.9.9.9.9.9.0.w.t.i.t.9.9.9.9.9.9.9.9.q.9.9.:.O.o.o.X.z i X 9 @XMXBXBXBXBX",
"BXBXMXoX3 d ,.y.l.l.j.y.y.y.e.9.9.9.9.e.i.F.F.F.j.e.9.9.9.9.9.9.9.9.t.I.S.k.q.9.9.9.9.9.9.9.9.<.-.#.O.o.o.o.X.k * 9 @XNXBXBXBXBX",
"BXbXsX..7 v ,.0.0.9.9.9.9.9.9.9.9.9.9.9.9.9.9.9.w.t.j.i.t.w.9.9.9.9.t.V.S.l.q.9.9.9.9.9.9.9.<.;.%.*.3.3.3.3.=.X.; w ..sXgXNXBXBX",
"BX;X/ V v @.<.0.0.0.9.9.9.9.9.9.9.9.9.9.9.9.8.9.k.Q._.S.D.t.9.9.9.9.w.j.k.t.9.9.9.9.q.0.9.<.-.#.%.3.n.S.S.V.6.X.s , V Q / cXBXBX",
"BXXX3 ; @.1.j.i.w.9.9.9.9.9.9.9.9.9.9.9.9.9.9.w.D.%X-X&XS.j.0.0.9.9.9.9.9.9.9.9.9.9.<.9.<.;.%.o.%.5.S.-X-X$X7.X.j u : + + hXBXBX",
"BXXX$ ; &.D.1XQ.6.-.9.q.q.9.9.9.9.9.9.9.9.9.9.w.D.%X-X-X_.j.0.0.9.9.9.9.9.9.9.q.9.<.-.-.-.#.%.o.+.5._.-X>X$Xd.X.j u X O O / fXBX",
"hX..& u &.Q.jXeX7.O.:.9.9.9.9.9.9.9.9.9.9.9.9.w.D.$X%X$XQ.i.0.0.9.9.9.9.9.9.9.9.<.;.%.+.%.%.%.+.+.5.S.%X%XS.7.X.j u : @ O + #XMX",
"..Y , s *.Q.nXeX7.o.-.;.;.-.-.;.<.q.q.q.q.q.0.q.i.D.D.D.k.t.0.0.q.q.9.:.-.-.-.-.-.#.o.o.+.%.%.+.+.>.d.b.n.b.3.X.j i ; > O + ^.BX",
"% > i j &.Q.jX7X7.o.O.%.%.%.%.#.:.9.9.9.9.9.9.9.9.w.w.w.w.9.9.9.9.9.<.-.+.%.%.%.=.=.*.%.%.%.%.%.%.$.*.*.*.$.$.X.k i i i o . 4 #X",
". * i l $.b.Q.V.3.o.+.+.+.+.+.%.-.-.;.;.;.;.;.;.;.-.-.-.-.;.;.;.;.;.-.%.+.+.*.5.n.n.n.7.*.+.%.%.+.%.O.o.z k l k s i i a o     Y ",
"+ : i l +.*.=.*.%.+.+.%.%.%.%.%.%.*.%.%.%.%.%.%.%.%.%.%.%.%.%.%.%.%.%.%.+.o.=.n.%X-X%Xn.=.o.+.$.$.+.+.X.j i i a i i i i o       ",
"+ : i j k l j z o.%.%.%.%.+.+.=.d.b.5.$.+.+.+.+.+.+.+.+.+.+.+.+.+.+.%.%.+.o.=.V.-XeXeXV.=.X.z l l x x k a u u i i i i i o       ",
"+ : i a a i a k X.%.$.$.$.+.O.3.V._.b.%.o.+.%.%.%.%.%.%.%.%.%.%.%.%.%.%.+.o.=.n.%X-X%Xn.=.z s i a a a a a a i i i i i i o .     ",
"+ : i i i i i s k z x z +.+.+.>.b.n.7.%.O.%.%.%.%.%.%.%.%.%.%.%.%.%.%.%.+.X.b D v.M.v.4.b j a i i u y h P ~ N u i i i i o O     ",
"+ : i a i i i i a s a j X.%.%.$.=.=.*.$.+.$.$.$.%.$.$.$.+.+.$.$.$.$.%.%.X.k a f h h h f a a i i i i y N A.S.A y y i i i o +     ",
"O : i a i i i i i i i s k z z z z z z z z z z z z z z z x x x z z z z z k s y u y y y y i i i i i i y h v.v.A i y i a a o +     ",
"$ : i i i i i i i i i i a s s s s s s s s s s s s s s s s s s s s s s s s a i i i i i i i i i i i i u d h h f i u i i i o O     ",
"Q V - = - = = - - - - = = = = = = = = ; d g g g g g g g g g g g g g g g g h h h h d ; - - = = = = = - = = = = = - = - - . $   Y ",
"fX{ % . @ @ @ @ @ @ @ @ @ @ @ @ @ @ @ # n S D S S S S S S S S S S S S S S S S S S n # @ @ @ @ @ @ @ @ @ @ @ @ @ @ @ @ o + 9 Y Y ",
"BX=XW I U T T T U U U T T T U T T I 8 $ 6 C C C C C C C C C C C C C C C C P p.s.p.m $ 8 I T T T T T T T U U U U T T T T W ' >XBX",
"BXcXsXaXaXaXaXaXaXaXaXaXaXaXaXsXfX;X/ $ O & & # & 2 1 & & # % & 1 2 & & 7 P h.H.g.Z 1 ^ :XfXsXaXaXaXaXaXaXaXaXaXaXaXaXsXaXfXvXNX",
"BXBXBXBXBXBXBXBXBXBXBXBXBXBXBXBXBXcX..1 o 6 t G e 2 2 6 e G r 9 & & 2 2 m a.H.P.B.K 3  .bXBXBXBXBXBXBXBXBXBXBXBXBXBXBXBXBXBXBXBX",
"BXBXBXBXBXBXBXBXBXBXBXBXBXBXBXBXBXxX .3 7 a.).-X/.L S a.C.-X*X~ M C A P f.h.H.L.h.K 3  .bXBXBXBXBXBXBXBXBXBXBXBXBXBXBXBXBXBXBXBX",
"BXBXBXBXBXBXBXBXBXBXBXBXBXBXBXBXBXhX| 5 K '.uXnXeXv.s.K.8XzXjXC.D D p.h.J.'.'.].K.K 3 | cXBXBXBXBXBXBXBXBXBXBXBXBXBXBXBXBXBXBXBX",
"BXBXBXBXBXBXBXBXBXBXBXBXBXBXBXBXBXhX| 5 L {.kXmXeXa.s.{.uXnXjXC.S S p.g.K.[.}.4X{.! 3 | cXBXBXBXBXBXBXBXBXBXBXBXBXBXBXBXBXBXBXBX",
"BXBXBXBXBXBXBXBXBXBXBXBXBXBXBXBXBXlX| 8 ! 5XkXzX7XM.C.4XyXzXyXS.a.a.v.B.]. X0XqX5X( 5 | cXBXBXBXBXBXBXBXBXBXBXBXBXBXBXBXBXBXBXBX",
"BXBXBXBXBXBXBXBXBXBXBXBXBXBXBXBXBXcX| 3 ! 5XuXyX7X{.{.6XqXyXqX<X_._.{.}. X8XqXqX5X( 5 | cXBXBXBXBXBXBXBXBXBXBXBXBXBXBXBXBXBXBXBX",
"BXBXBXBXBXBXBXBXBXBXBXNXvXhXhXlXxXaX{ t _ 5XqX8X8X8X8X8X8X8X8X8X6X3X`.`.{.`.3X6X5X( 5 | cXBXBXBXBXBXBXBXBXBXBXBXBXBXBXBXBXBXBXBX",
"BXBXBXBXBXBXBXBXBXBXBXcX@X] [ | |  .} Z.`.8X8X8X8XqXqX0X8X6X0XqX3Xm.E E E E ! ).5X) 3 | bXBXBXBXBXBXBXBXBXBXBXBXBXBXBXBXBXBXBXBX",
"BXBXBXBXBXBXBXBXBXBXMXtXR % 1 1 $ q ` 5X0X8X8X8X6X5X5X5X5X8X8X5X).J 1 % 1 % w ` `._ e { gXMXBXBXBXBXBXBXBXBXBXBXBXBXBXBXBXBXBXBX",
"BXBXBXBXBXBXBXBXBXlX*X} L Z K m # 4 ` 8XqX8X8X8X{.C.C.C.(.4X3XZ.! L K K K K K L ! ( ) } OX:XbXBXBXBXBXBXBXBXBXBXBXBXBXBXBXBXBXBX",
"BXBXBXBXBXBXBXBXBXpXU 6 a.H.H.s.7 6 ` 5XqX8X0X6X(.a.P p.C.<X).G 6 a.H.B.B.H.g.H 5 ( `.m.e | hXBXBXBXBXBXBXBXBXBXBXBXBXBXBXBXBXBX",
"BXBXBXBXBXBXBXBXBX>Xr # s.P.P.g.m 6 ` 5XqX8X8X8X{.C.C.C._.5X).e 2 a.L.L.J.P.N.Z % ( 5Xm.3 ' hXBXBXBXBXBXBXBXBXBXBXBXBXBXBXBXBXBX",
"BXBXBXBXBXBXBXBXBX>XF 2 s.L.L.g.m q ` 5XqX8X8X8X6X6X6X5X8X0X).r 2 a.J.J.H.J.h.Z 1 ! 3Xm.9 [ hXBXBXBXBXBXBXBXBXBXBXBXBXBXBXBXBXBX",
"BXBXBXBXBXBXBXBXBX>XF # s.P.P.g.m q ` 5XqX8X8X8X8X0X0X8X0X0X).e 2 a.L.L.J.L.N.Z % ! 3Xm.9 [ hXBXBXBXBXBXBXBXBXBXBXBXBXBXBXBXBXBX",
"BXBXBXBXBXBXBXBXBXtXU 6 a.H.H.s.7 q ` 5XqX8X8X8X8X8X8X8X0X0X).G 6 a.H.H.B.H.g.Z 5 ) 3Xm.9 [ hXBXBXBXBXBXBXBXBXBXBXBXBXBXBXBXBXBX",
"BXBXBXBXBXBXBXBXBXhX@X[ L K K Z 6 6 ` 5XqX8X8X8X8X8X8X8X8X8X$X` L L K K K K K L ! /.5X` 9 [ hXBXBXBXBXBXBXBXBXBXBXBXBXBXBXBXBXBX",
"BXBXBXBXBXBXBXBXBXNXbX>XR 2 2 1 $ 5 ` 5XqX8X8X8X8X8X8X8X8X8X6X5X).J 1 1 2 1 w ) `.8X5X_ 9 [ hXBXBXBXBXBXBXBXBXBXBXBXBXBXBXBXBXBX",
"BXBXBXBXBXBXBXBXBXBXBXxXOX/ ' W 8 5 ` 6XqX8X8X8X8X8X8X8X8X8X0XqX3X_ J J J J E /.8XqX8X_ 5 ' hXBXBXBXBXBXBXBXBXBXBXBXBXBXBXBXBXBX",
"BXBXBXBXBXBXBXBXBXBXBXNXlXgXgX;XT q ` 5XqX8X8X8X8X8X8X8X8X8X8X0X6X<X`.`.`.`.`.3X8XqX6X_ 5 ] hXBXBXBXBXBXBXBXBXBXBXBXBXBXBXBXBXBX",
"BXBXBXBXBXBXBXBXBXBXBXBXBXBXBXcX+X/ ) /.<X8X0X8X8X8X8X8X8X8X8X8X0X0XqXqXqXqXqXqX8X3X)._ / @XcXBXBXBXBXBXBXBXBXBXBXBXBXBXBXBXBXBX",
"BXBXBXBXBXBXBXBXBXBXBXBXBXBXBXNXlX:X[ t m.8XqX8X8X8X8X8X8X8X8X8X8X8X0X0X0X0XqXqX0XZ.J { >XxXNXBXBXBXBXBXBXBXBXBXBXBXBXBXBXBXBXBX",
"BXBXBXBXBXBXBXBXBXBXBXBXBXBXBXBXBXbX@XT ( ).{.4X6X8X8X0X0X0X0X0X0X8X8X8X8X4X X{.).J $  .bXBXBXBXBXBXBXBXBXBXBXBXBXBXBXBXBXBXBXBX",
"BXBXBXBXBXBXBXBXBXBXBXBXBXBXBXBXBXNXxX>X..J P '.}.6XqXqXqXqXqXqXqX8X8X8X6X}.B.P t $ $  .bXBXBXBXBXBXBXBXBXBXBXBXBXBXBXBXBXBXBXBX",
"BXBXBXBXBXBXBXBXBXBXBXBXBXBXBXBXBXBXBXMX.X< m h.[. X{.`.).).).).`.{.4X4X}.].h.K 6 O $  .cXBXBXBXBXBXBXBXBXBXBXBXBXBXBXBXBXBXBXBX",
"BXBXBXBXBXBXBXBXBXBXBXBXBXBXBXBXBXBXBXmX.X1 M h.].'.M.J t t t r H C.].].'.K.B.g.a.m 1  .cXBXBXBXBXBXBXBXBXBXBXBXBXBXBXBXBXBXBXBX",
"BXBXBXBXBXBXBXBXBXBXBXBXBXBXBXBXBXBXBXbX.X3 M h.P.H.a.7 % + $ 0 J P g.B.K.K.H.L.H.K 3  .cXBXBXBXBXBXBXBXBXBXBXBXBXBXBXBXBXBXBXBX",
"BXBXBXBXBXBXBXBXBXBXBXBXBXBXBXBXBXBXBXbX.X3 M N.L.H.h.a.M % r XX#XE H C.}.].H.J.H.K 3  .cXBXBXBXBXBXBXBXBXBXBXBXBXBXBXBXBXBXBXBX",
"BXBXBXBXBXBXBXBXBXBXBXBXBXBXBXBXBXBXBXbX.X3 M N.J.H.J.H.p.6 I aXgXW q Z.6X}.'.].K.K 3  .cXBXBXBXBXBXBXBXBXBXBXBXBXBXBXBXBXBXBXBX",
"BXBXBXBXBXBXBXBXBXBXBXBXBXBXBXBXBXBXBXbX.X3 M N.J.H.J.H.p.6 U fXgXW 9 Z.8X4X}.}.{.P 3 | cXBXBXBXBXBXBXBXBXBXBXBXBXBXBXBXBXBXBXBX",
"BXBXBXBXBXBXBXBXBXBXBXBXBXBXBXBXBXBXBXbX.X3 M N.J.H.J.H.p.6 U sXgXW q Z.8X0X8XqX5X( 5 | cXBXBXBXBXBXBXBXBXBXBXBXBXBXBXBXBXBXBXBX",
"BXBXBXBXBXBXBXBXBXBXBXBXBXBXBXBXBXBXBXbX.X3 M N.J.H.J.H.p.6 U sXgXW q Z.8X0X8XqX5X( 5 | cXBXBXBXBXBXBXBXBXBXBXBXBXBXBXBXBXBXBXBX"
};