/* XPM */
static char *_17dd8027e77491799499da1a371b6a6sHAfptUKX2JLWuJU[] = {
/* columns rows colors chars-per-pixel */
"64 64 184 2 ",
"   c #112F49",
".  c #16314B",
"X  c #26374F",
"o  c #213C56",
"O  c #263E58",
"+  c #293F59",
"@  c #2D415A",
"#  c #34435D",
"$  c #38445E",
"%  c #3E4660",
"&  c #46485F",
"*  c #5C5458",
"=  c #6C5A58",
"-  c #775E58",
";  c #424761",
":  c #444962",
">  c #4B4C65",
",  c #514D67",
"<  c #544E68",
"1  c #535067",
"2  c #5A5167",
"3  c #575069",
"4  c #5A516A",
"5  c #685666",
"6  c #6C5865",
"7  c #64566D",
"8  c #68576D",
"9  c #65596C",
"0  c #6A596E",
"q  c #715D66",
"w  c #7C5E63",
"e  c #745F69",
"r  c #6E5B70",
"t  c #755E72",
"y  c #795F74",
"u  c #7B6366",
"i  c #7B626A",
"p  c #7C6174",
"a  c #796A75",
"s  c #866459",
"d  c #856959",
"f  c #936958",
"g  c #9D6C5F",
"h  c #A16E5F",
"j  c #AC725E",
"k  c #A27C5B",
"l  c #B4765C",
"z  c #B9775C",
"x  c #BD795C",
"c  c #836262",
"v  c #896765",
"b  c #926F64",
"n  c #996D67",
"m  c #9F7664",
"M  c #9B726F",
"N  c #836476",
"B  c #8E6B70",
"V  c #866678",
"C  c #896779",
"Z  c #8D697A",
"A  c #956D76",
"S  c #9C6E73",
"D  c #916B79",
"F  c #9C7276",
"G  c #A06F60",
"H  c #A57B66",
"J  c #A5716E",
"K  c #AC756B",
"L  c #B47766",
"P  c #BC7A63",
"I  c #B17668",
"U  c #B37D6E",
"Y  c #A17171",
"T  c #A97670",
"R  c #AD7B72",
"E  c #A1797D",
"W  c #B07D71",
"Q  c #C47D5E",
"!  c #CA7F5B",
"~  c #C27C60",
"^  c #9C867D",
"/  c #B48262",
"(  c #B98464",
")  c #BB836D",
"_  c #AD817C",
"`  c #B48175",
"'  c #CD815B",
"]  c #D08159",
"[  c #D6885D",
"{  c #DB8B5A",
"}  c #DF925F",
"|  c #E08F5B",
" . c #E4935B",
".. c #E8965C",
"X. c #EC9A5C",
"o. c #F19E5D",
"O. c #EEA15F",
"+. c #F6A45E",
"@. c #F9A55D",
"#. c #FFAA5E",
"$. c #C48366",
"%. c #CA8361",
"&. c #C1866C",
"*. c #C3886D",
"=. c #CE8E6A",
"-. c #D38760",
";. c #D68C63",
":. c #D88F64",
">. c #D68F69",
",. c #CE9068",
"<. c #DA9462",
"1. c #D89469",
"2. c #DB956B",
"3. c #C98E70",
"4. c #DF9C71",
"5. c #E29661",
"6. c #E49A63",
"7. c #EB9E64",
"8. c #E59F6E",
"9. c #EEA163",
"0. c #F4A461",
"q. c #F9A661",
"w. c #FFAD63",
"e. c #F6AB68",
"r. c #FFB067",
"t. c #FFB26B",
"y. c #E3A277",
"u. c #ECA873",
"i. c #E6A77B",
"p. c #E7A97D",
"a. c #EAAC7D",
"s. c #F6AF72",
"d. c #EFB37D",
"f. c #FFB673",
"g. c #FFB976",
"h. c #F6B279",
"j. c #FEBC7C",
"k. c #997581",
"l. c #A37D81",
"z. c #AE8886",
"x. c #B78C82",
"c. c #B89189",
"v. c #C39786",
"b. c #C8A18F",
"n. c #CDA591",
"m. c #DDAD92",
"M. c #DEBB98",
"N. c #E2A780",
"B. c #EAAE80",
"V. c #ECB285",
"C. c #EFB88A",
"Z. c #FFBF82",
"A. c #F2BE8F",
"S. c #E4BB99",
"D. c #EBBA9A",
"F. c #FFC184",
"G. c #FFC68D",
"H. c #EDC59D",
"J. c #F6C494",
"K. c #FBC794",
"L. c #FFCA94",
"P. c #F1C79E",
"I. c #F4C99F",
"U. c #FDCE9B",
"Y. c #FFD19E",
"T. c #F7CCA0",
"R. c #FFD4A3",
"E. c #FFD6A8",
"W. c #FFD9AD",
"Q. c #FFDBB1",
"!. c #FFDDB6",
"~. c #F5D4BA",
"^. c #FFDDBA",
"/. c #FFE1BD",
"(. c #ECDACA",
"). c #F8DBC2",
"_. c #FFE3C5",
"`. c #FEE6CB",
"'. c #FFE8CD",
"]. c #FFE8CE",
"[. c #FAE6D2",
"{. c #FFEAD2",
"}. c #FFEBD4",
"|. c #FFECD6",
/* pixels */
"|.|.R.R.R.R.R.R.|.R.R.R.D Z O o V ! ] `.|.|.|.|.|.|.|.|.|.|.|.|.|.|.|.|.|.!._.|.!.R.R.R.R.R.R.R.R.R.!.|.|.|.`.R.R.R.R.R.E.|.{.#.",
"R.R.|.|.|.|.|.|.|.R.R.R.D Z < < C T.{.E.R.R.R.R.R.R.R.R.R.R.`.|.|.|.|.|.|.|.|.|.|.|.|.|./.R.R.^.|.|.|.|.|.|.|.|.|.|.|.|.{.R.R.#.",
"R.R.R.|.|.R.|.|.R.R.R.R.[ D Z 3 C T.{.E.R.R.R.R.R.R.R.R.R.R.t.#.L.f.#.G.R.R.R.R.R.R.R.R.R.R.R.R.F.#.#.#.#.#.#.t.R.W.|.].R.R.R.#.",
"|.R.R.R.|.R.R.R.R.R.R.R.R.D < C Z T.R.{.E.R.R.R.R.R.R.R.R.R.R.R.R.R.R.R.R.R.R.R.R.R.R.R.R.R.R.R.R.R.R.G.g.G.f.R.R.W.].R.R.R.{.#.",
"|.R.R.R.R.|.R.R.R.R.R.w.R.D Z Z Z T.R.{.E.R.R.R.R.R.R.R.R.R.`.W.R.R.R.R._.|.|.|.|.|.|.|.|.|.|./.R.R.R.R.R.R.R.Q.|.].R.R.R.R.{.#.",
"R.R.R.R.|.|.|.|.|.w.#.#.R.D Z Z Z T.w.`.|.|.|.|.|.|.f.#.#.#.#.^.|.|.|.|.Z.#.#.#.#.#.#.#.#.#.#.L.|.|.|.|.|.|.|.|.|.|.].R.R.R.R.#.",
"|.R.R.R.|.w.#.#.#.#.#.R.R.D 3 C Z T.R.{.t.#.#.#.#.#.#.#.#.#.#.#.#.#.#.#.#.#.#.#.#.#.#.#.#.#.#.#.#.#.#.#.#.#.#.#.#.g.].R.R.R.{.#.",
"|.R.R.R.|.#.#.#.#.#.#.R.R.D Z 4 C T.R.{.t.#.#.#.#.#.#.#.#.#.#.#.#.#.#.#.#.#.#.#.#.#.#.#.#.#.#.#.#.#.#.#.#.#.#.#.#.g.].R.R.R.{.#.",
"|.R.R.R.|.#.#.#.#.#.#.#.R.D Z O V q.Y.{.t.#.#.#.#.#.#.#.#.#.#.#.#.#.#.#.#.#.#.#.#.#.#.#.#.#.#.#.#.#.#.#.#.#.#.#.#.g.].R.R.R.{.#.",
"|.R.R.R.|.#.#.#.#.#.#.#.R.D Z O V q.Y.{.t.#.#.#.#.#.#.#.#.#.#.#.#.#.#.#.#.#.#.#.#.#.#.#.#.#.#.#.#.#.#.#.#.#.#.#.#.g.].R.R.R.{.#.",
"R.R.R.w.w.#.#.#.#.#.#.Y.R.D Z < C I.R.w.#.#.#.#.#.#.#.#.#.#.#.#.#.#.#.#.#.#.#.#.#.#.#. ...#.#.#.#.#.#.#.#.#.#.#.#.#.w.t.R.R.R.#.",
"R.R.R.R.#.#.#.#.#.#.#.R.R.D Z 3 C T.{.t.#.[ @.#.#.#.#.#.#.#.#.#.#.#.#.#.#.#.#.#.#. .] B.j.#.#.#.#.#.#.#.#.#.#.#.#.#.t.R.R.R.R.#.",
"}.R.R.R.{.#.#.#.#.#.#.R.R.D 4 C Z T.{.t.#.#.[ @.#.#.#.#.#.#.#.#.#.#.#.#.#.#.#.#.F.R.g.#.#.#.#.#.#.#.#.#.#.#.#.#.#.g.`.R.R.R.].#.",
"|.R.R.}.w.{.#.#.#.] Y.R.[ D C Z Z T.;.] ] ] ] ] ] @.#.#.#.#.#.#.{ ] ] ] ] o.#.#.w.w.#.#.#.#.#.X.] ] ] ] ] | #.#.g.^.g.].R.R.R.#.",
"[ {.}.|.] [ ] ] ] ] [ R.D Z 4 C Z D ! ] ] ] ] ] +.{ ] ] ] ] ] ] ] ] ] ] ] ] ] ] ] ] ] ] ] ] ] ] ] ] ] ] ] ] ] ] ] [ 2.|.}.}.{.R.",
"D -.-.-.] ] ] ] ] D D D Z Z + V Z Z ! ] A D ! ] ] ] S Q ] ] ] Y D P J P ] ] J P ] K D D D I ] ] L D D J P J ] ] ] ] ] -.-.>.[.D ",
"Z D D D D D D D D Z Z Z Z Z < C Z Z D D Z Z D D D D Z D D D 8 4 4 4 4 N D 0 p D D Z Z Z Z Z D D Z Z Z Z D Z D D D D D D D D k.Z ",
"Z Z Z Z Z Z Z Z Z Z Z Z Z Z C 4 4 4 4 4 4 4 4 4 4 4 4 4 4 4 < < < < < < 4 y 0 p Z Z Z Z Z Z Z Z Z Z Z Z Z Z Z Z Z Z Z Z Z Z C 4 ",
"4 Z Z Z Z Z Z Z Z Z Z Z Z Z Z 3 < < < < < < < < < N # o o . ; p C 7 < y C C 0 < y Z Z Z Z Z Z Z Z Z Z Z Z Z Z Z Z Z Z Z Z C 4 < ",
"C 4 4 Z Z Z Z Z Z Z Z Z 4 C Z 3 < < < < < < < < < 4 , + o   ; 4 4 < < 4 p Z C 8 < 4 4 4 4 4 t Z Z Z Z Z Z Z Z Z Z Z Z V 4 4 V < ",
"Z < < 4 4 Z Z Z 4 0.q.q.O.0.q.O.O.O.O.O.O.O.O.O.A 4 p N o & , p L  .O.O.0.q.q.0.O.O.O.O.) r r ) q.q.q.=.Z p 8 Z Z N 4 4 < 4 Z V ",
"I.(.H.H.H.I.I.I.H.5 @.#.[ #.[ #.#.{ @.#.#.#.#.#.q.A Z Z X ; p P X.#.#.#.#. .[ [ X.#.#.#.q.9.d.U.U.U.U.U.I.P.H.I.I.I.H.H.H.H.H.Z ",
"{.E.{.R.R.R.R.R.].(.U.U.U.U.U.U.U.[ [ [ @.{ @.#.#.0.e N # > j X.{ o.#. .[ ] ] ] ] [ [ [ [ [ [ ;.;.;.;.;.;.y.R.R.R.R.R.R.R.R.R.! ",
"|.r.t.R.].].;.;.>.>.;.;.;.;.;.;.;.] ] ] [ ] [ [ @.{ 5 # r 4 l +.{ [ [ ] ] ] ] ] ] ] ] ] ] ] ] ] ] ] ] ] ] [ ;.;.4.R.R.U.r.r.w.] ",
"|.#.#.t.t.>.] ] ] ] ] ] ] ] ] ] ] ] ] ] ] ] ] ] [ +.q + , < ;.{ ] ] ] ] ] ] ] ] ] ] ] ] ] ] ] ] ] ] ] ] ] ] ] ] ] 4.U.w.#.w.L.] ",
"f.#.#.#.#.).] ] ] ] ] ] ] ] ] ] ] ] ] ] ] ] ] ] ] @.q + > < <.{ ] ] ] ] ] ] ] ] ] ] ] ] ] ] ] ] ' ] ] ] ] ] ] ] { @.w.w.L.#.r.] ",
"_.#.#.#.#.|.] ] ] ] ] ] ] ] ] ] ] ] ] ] ] ] ] ] o.#.q > , < <.{ ] ] ] ] ] ] ] ] ] K P ] ] ] ] ] ] ] ] ] ] ] ] ] { #.#.w.t.w.L.] ",
"W.#.#.#.#.W.] ] ] ] ] +.S ' ] ] ] ] ] ] ] ] ] ] @.#.q < < < <.{ ] ] ] K P ] ] ] ] } { ] ] ] ] ] ] ] ] ] ] ] ] ] 1.G.#.#.#.w.R.] ",
"R.#.{ L.#.R.] ] ] ] ] { Q ' ] ] ] ] ] ] ] ] ] ] { @.q < < < <.{ ] ] ] 5.U P ] ] ] [ [ ] ] ] ] ] ] ] ] ] ] ] ] ] 2.L.#.#.#.w.R.] ",
"t.#.+.t.#.R.] ] ] ] ] ] ] ] ] ] ] ] ] ] ] ] ] ] o.#.q < < < <.+.{ ] ] [ 5.[ ] ] ] ] ] ] ] ] ] ] ] ] ] ] ] ] ] ] 2.L.#.#.#.#.t.] ",
"L.#.#.#.#.R.] ] ] ] ] ] ] ] ] ] ] ] ] Y ! ] ] ] { @.q < < < <. .] ] ] ] [ [ ] ] ] ] ] ] ] ] ] ] ] P I ] ] ] ] ] 2.L.#.#.#.w.K.] ",
"R.#.#.#.#.`.] ] ] ] ] ] ] ] ] ] ] ] o.A ! ] ] ] ] @.q y 4 < <.{ ] ] ] ] ] ] ] ] ] ] ] ] ] ] ] ] { =.J ] ] ] ] ] 2.L.#.#.#.w.R.] ",
"R.#.#.#.#.|.] ] ] ] ] ] ] ] ] ] ] ] { ~ ' ] ] ] X.#.q N 4 < <.+.{ ] ] ] ] ] ] ] ] ] ] ] ] ] ] ]  ...Q ] ] ] ] ] { t.#.#.#.w.R.] ",
"f.#.L.L.{ j.o.A.A.+.o.o.o.] ] ] ] ] ] ] J S ! ] @.#.q 7 < < <.#.{ ] K ~ ] ] ] ] ] ] ] ] ] ] ] ] [ { ] P S K ] ] { @.5.L.G.#.f.] ",
"#.{ z.z.Y R { z.4.#.{ { { ] ] ] ] ] J Y Z Z S Y R 0.q < < < <.&.Y Y A P ] ] ] ] ] L P ] ] ] P Y Y Y Y A Z A Y K ' R Y z.x.| #.] ",
"W ] P Z Z Z Y Z Y { J Y Y Y Y Y ' J Z Z Z Z Z Z Z v 2 < < < M D Z Z Z S Y Y Y Y Y A A Y Y Y A Z Z Z Z Z Z Z Z A S Z Z Z Z Y R Y ",
"7 w w ; ; ; P P Z Y Z Z Z Z Z Z Y Z Z Z Z Z Z Z r < < < < < : ; ; ; p Z Z Z Z 4 ; r Z Z Z Z Z Z Z Z Z Z Z Z Z Z p ; ; > 7 7 7 7 ",
"# < < ; ; ; w w 8 7 7 7 7 7 7 7 7 7 7 7 7 7 7 > , < < < < < : ; ; ; 4 > 4 7 1 @ # 4 1 : : : : : 1 7 7 7 7 7 7 7 4 ; ; : < , # # ",
"9 # y y y < < < < < < < < < < < < < < < < < < : , < < < < < < < < < < : > < > @ @ # + o # ; ; ; > < < < < < < < 4 y y y y y 9 o ",
"0 ; Z 0 0 y y < < < < < < < < < < < < < < < < < < < < $ # # # > < < < < < % # O o o # ; > < < < < < < < < < < < 7 Z Z N 1 C : o ",
"y y Z y y 0 0 # # # # # # # # # # # # # # # # # # # # o o o o # # # # # # O o o o o % < < : # # # ; < < < < > # ; t N > 4 > o 7 ",
"=.=.Z r =.( ( k k k k k k k k k k s s s s s s 9 7 7 7 s & O $ 4 7 7 7 7 7 7 > % % % $ : < > % % % : < < < < > % ; 4 V 9 C 7 7 Z ",
" . .n./ #.#.#.#.#.#.#.#.#.#. . . .K K K K K K D Z Z Z J p 7 r V Z Z Z Z Z Z p 7 < < : $ 3 y b / / / / / / / / / / ( =.=.=.b.Z L ",
"B.] i. .&. .F.F.F... . . . .] ] ] L I I I I I I I I I I I I I I I I I I I I &.( / u < $ 4 Z *.#.#.#.#.#.#.#.#.#.w.F.F.F.F.j.L ] ",
"p.......b...p.p.p.] ] ] ] ] ] ] ] ] ] ] ] ] ] ] ] ] ' ] ] ] ] ] ] ' ' ] ] ] X.#.#.,.u $ 4 Z *.#.#.#.#.#.#.#.#.w.Z.j.j.j.j.@.] ] ",
" .#.#.#.Z...] ] ] ] ] ] ] ] ] ] ] ] ] ] ] ] ] ] ] ] ' ] ] ] ] ] ] ] ' ' ] ] { ..s.t.m $ 4 Z *.#.#.#.+.........9.g.#.#.#.#.#.i.] ",
"#.#.#.#...] ] ] ] ] ] ] ] ] ] ] ] ] ] ] ] ] ] ] ] ] ] ] ] ] ] ] ] ] ] ] ] ] ] ] V.j.m $ 4 Z *.#.+...{ ] ] ] ] { #.#.#.#.#.w.R.] ",
"#.#.#.#.i.] ] ] ] ] ] ] ] ] ] ] ] ] ] ] ] ] ] ] ] ] ] ] ] ] ] ] ] ] ] ] ] ] ] ] u.t.m $ 4 Z *.#.X.] ] ] ] ] ] <.g.#.#.#.#.w.R.] ",
"X.#.#.#.V.] ] ] ] ] ] ] g g ' ] ] ] ] ] ] ] ] ] ] ] ] ] ] ] ] ] ] ] j Q ] ] ] ] X.#.m : > y *.#.X.] Q P ] ] ] 2.L.#.#.#.#.w.R.] ",
" .X.#.#.y.] ] ] ] ] ] ] 3 < ! ] ] ] ] ] ] ] ] ] ] ] ] ] ] ] ] ] ] ] w j j x ] ] X.#.m < , 0 *.#.X.] %.$.] ] ] <.j.#.#.#.#.w.R.] ",
"#. .#.#.R.] ] ] ] ] ] ] c < g h ' ] ] ] ] ] ] ] ] ] ] ] ] ] ] ] ] ] n z g l ] ] X.#.m < t Z *.#.X.] {  .] ] ] [ 2.#.#.#.#.w.R.] ",
"g.#.#.#.G.] ] ] ] ] ] ] ] b c < g f ! ] ] ] ] ] ] ] ] ] ] ] ] ] ] ] ] ] ] ' ] ] X.#.m > 0 Z *.#.X.] ] ] ] [ { P F 2.o.#.#.w.R.] ",
"!.#.#.#.#.] ] ] ] ] ] ] ] X.] c w * ! ] ] ] ] ] ] ] ] ] ] ] ] ] ] ] ] ] ] ] ] ] X.#.m $ 4 Z *.#.X.] ] ] ] {  .' ` x.8.#.#.w.R.' ",
"_.#.#.#.f.] ] ] ] ] ] ] ] ] ] ] ] ] ] ] ] ] ] ] ] ] ] ] ] ] ] ] ] ] ] ] ] ] ] ] X.#.m $ 4 A $.o. .] ] ] ] ] ] { g.G.F.#.#.w.C.] ",
"R.#.#.5.R.] ] ] ] ] ] ] ] ] ] ] ] ] ] ] ] ] ] ] ] ] ] ] ] ] ] ] ] ] ] ] ] ] ] ] X.#.m $ 4 ` :.] ] ;.:.] ] ] ] 2.L.#.#.#.#.#.2.] ",
"Q.#.#.S R.{ { ] ] ] ] ] ] ] ] ] ] ] ] ] ] ] ] { ] ] ] ] ] ] ] ] ] ] ] ] ] ] ] ] X.#.m $ 4 c.N.2.2.a.a.] ] ] ] <.F.#.#.#.#.w.R.] ",
"~.#.#.{ L.t.6.l ] ] ] ] ] ] ~ ~ ' ~ ~ l ' ] ] o.[ ] ] ] ] ] z l l ! x l l l ! ] 7.w.m % 4 Z v.L.K.h. .] ] ] ] { #.+.#.#.#.w.R.] ",
"{ #.+.+.t.J.Y u { { { { { { T Y [ T l.a ' ] ] ] ] ] { { ] ] c 7 4 l v 6 6 q G x N.s.m > r A ) 7.:.Q Q Q Q Q Q %.6.| #.#.#.t.J.Q ",
"t.#.{ :.S.] #.+.#.#.#.#.t.t.#.@.+.+.J.L.q.[ ] ] ] [ @.@.{ Q ' K Y %.{ { { o.H B $.! w # 1 n J D E k.F Y Y Y F Z Y 7.9.t.w.U.~ N ",
"U.#.r.U.5 [ #.[ #.#.#.@.K.U.q.] ] ] ] +.[ ] ] ] ] o.@.[ [ T %.+.#.#.#.#.#.#.@.#.@.H : o # 3 i 3.G.D. .#.#.#.6.F F F _ L.e.J.C > ",
"0.w.R.#.[ #.#.w.t.#.@.] ] ] ] ] ] ] ] ] ] ] ] ] ] ] ] [ +.#.#.#.#.#.#.#.#.#. .X. .B.^ # o - 6.Z.a. .#.#.#.#.#.#.#.#.#.0.E 6.N o ",
"Z R.R.w.#.#.#.R.].w.[ [ [ [ [ ] [ [ ] ] ] ] ] [ [ [ [ +.@.@.#.#.#.#.#.#.#.#.#. .[ X.d o o - m.S.[  .+.#.#.#.#.#.#.#.#.t.S.< , o ",
"C T.T.T.+.+.+.I.q.+.+.+.+.+.+.+.+.+.' ! ! ! +.+.+.+.+.] ! ! X.+.+.+.+.+.+.+.+.+.+.{ = o % < 0 ) +./ b +.+.+.+.+.+.+.e.M., < , o ",
"< < < < < < < < < < < < < < < < < < < < < < < < < < < < < < < < < < < < < < < < < < < < < $ o o o # ; # < < < < > o o o O < < < "
};